<?xml version="1.0" encoding="utf-8"?>
<!-- Generator: Adobe Illustrator 26.0.1, SVG Export Plug-In . SVG Version: 6.00 Build 0)  -->
<svg version="1.1" id="Layer_1" xmlns="http://www.w3.org/2000/svg" xmlns:xlink="http://www.w3.org/1999/xlink" x="0px" y="0px"
	 viewBox="0 0 3829 1463" style="enable-background:new 0 0 3829 1463;" xml:space="preserve">
<style type="text/css">
	.st0{clip-path:url(#SVGID_00000103971523939588138040000014095296558085097889_);}
	.st1{fill:none;stroke:#34599C;stroke-width:4.5833;stroke-miterlimit:8;}
	.st2{fill:#4472C4;}
	.st3{fill:#FFFFFF;}
	.st4{font-family:'ArialMT';}
	.st5{font-size:83px;}
	.st6{clip-path:url(#SVGID_00000150817177930506314510000007086574767199967167_);}
	.st7{clip-path:url(#SVGID_00000124123881606287212910000018419516398252672700_);}
	.st8{fill:#4472C4;stroke:#FFFFFF;stroke-width:4.5833;stroke-miterlimit:8;}
	.st9{clip-path:url(#SVGID_00000097502580800681913990000011852367109322218941_);}
	.st10{clip-path:url(#SVGID_00000182517436771407914020000012160078536112848011_);}
	.st11{clip-path:url(#SVGID_00000151528350524691098560000007590233183488113561_);}
	.st12{clip-path:url(#SVGID_00000101821316952810655240000012749649735520480959_);}
	.st13{clip-path:url(#SVGID_00000156567756286945572220000016973830688023717782_);}
	.st14{clip-path:url(#SVGID_00000097481864319873170580000003704107674830710943_);}
	.st15{font-size:64px;}
</style>
<g>
	<defs>
		<rect id="SVGID_1_" width="3829" height="1463"/>
	</defs>
	<clipPath id="SVGID_00000134941378145604166750000015320116975977860531_">
		<use xlink:href="#SVGID_1_"  style="overflow:visible;"/>
	</clipPath>
	<g transform="translate(-238 -529)" style="clip-path:url(#SVGID_00000134941378145604166750000015320116975977860531_);">
		<path class="st1" d="M2152.5,976.5v93.9h540.8v93.9"/>
		<path class="st1" d="M2152.3,976.5v93.9h-540.8v93.9"/>
		<rect x="1705" y="529" class="st2" width="894" height="447"/>
		<text transform="matrix(1 0 0 1 2230.6399 691)" class="st3 st4 st5">Face </text>
		<text transform="matrix(1 0 0 1 2098.9839 780)" class="st3 st4 st5">Recognition </text>
		<text transform="matrix(1 0 0 1 2109.0439 869)" class="st3 st4 st5">Application</text>
		<g>
			<defs>
				<rect id="SVGID_00000034065291571441102280000014090959858505226425_" x="1750" y="574" width="269" height="357"/>
			</defs>
			<clipPath id="SVGID_00000142151305116210790030000010227340430927035825_">
				<use xlink:href="#SVGID_00000034065291571441102280000014090959858505226425_"  style="overflow:visible;"/>
			</clipPath>
			
				<g transform="matrix(0.000360892 0 0 0.000360892 1750 574)" style="clip-path:url(#SVGID_00000142151305116210790030000010227340430927035825_);">
				<g>
					<defs>
						<rect id="SVGID_00000090268305509743609030000018024533017412613801_" x="1685.7" y="574" width="396.6" height="357"/>
					</defs>
					<clipPath id="SVGID_00000138559183285372018120000009407946171275148435_">
						<use xlink:href="#SVGID_00000090268305509743609030000018024533017412613801_"  style="overflow:visible;"/>
					</clipPath>
					
						<g transform="matrix(1.00395 0 0 1 -178225 0.0231268)" style="clip-path:url(#SVGID_00000138559183285372018120000009407946171275148435_);">
						<g transform="scale(6594.76 6594.76)">
							
								<image style="overflow:visible;enable-background:new    ;" width="166" height="150" id="img2" xlink:href="8F85769B.jpeg"  transform="matrix(2.38 0 0 2.38 179202.8281 573.9769)">
							</image>
						</g>
					</g>
				</g>
			</g>
		</g>
		<rect x="1304.1" y="351" class="st8" width="893" height="447"/>
		<text transform="matrix(3.610000e-04 0 0 3.610000e-04 1750.5524 574.4787)" class="st3 st4 st5">Develop Face </text>
		<text transform="matrix(3.610000e-04 0 0 3.610000e-04 1750.5625 574.5108)" class="st3 st4 st5">Recognition </text>
		<text transform="matrix(3.610000e-04 0 0 3.610000e-04 1750.5989 574.543)" class="st3 st4 st5">Model</text>
		<g>
			<defs>
				<rect id="SVGID_00000090989227501060743600000012761770674191903374_" x="1615.5" y="394.5" width="270" height="360"/>
			</defs>
			<clipPath id="SVGID_00000106866458668089463810000016144781655679551677_">
				<use xlink:href="#SVGID_00000090989227501060743600000012761770674191903374_"  style="overflow:visible;"/>
			</clipPath>
			<g style="clip-path:url(#SVGID_00000106866458668089463810000016144781655679551677_);">
				<g>
					<defs>
						<rect id="SVGID_00000124154149007419982090000012316732449126470534_" x="1570.5" y="394.5" width="360" height="360"/>
					</defs>
					<clipPath id="SVGID_00000163039349090410309960000005463434285813238923_">
						<use xlink:href="#SVGID_00000124154149007419982090000012316732449126470534_"  style="overflow:visible;"/>
					</clipPath>
					<g style="clip-path:url(#SVGID_00000163039349090410309960000005463434285813238923_);">
						<g>
							<defs>
								<rect id="SVGID_00000054959104132631892490000018187460603714416053_" x="1570.5" y="394.5" width="360" height="360"/>
							</defs>
							<clipPath id="SVGID_00000131358731293459964820000017596268739041358267_">
								<use xlink:href="#SVGID_00000054959104132631892490000018187460603714416053_"  style="overflow:visible;"/>
							</clipPath>
							<g style="clip-path:url(#SVGID_00000131358731293459964820000017596268739041358267_);">
								<path class="st3" d="M1750.5,574.5C1750.5,574.5,1750.5,574.5,1750.5,574.5C1750.5,574.5,1750.5,574.5,1750.5,574.5
									C1750.5,574.5,1750.5,574.5,1750.5,574.5C1750.5,574.5,1750.5,574.5,1750.5,574.5C1750.5,574.5,1750.5,574.5,1750.5,574.5
									C1750.5,574.5,1750.5,574.5,1750.5,574.5C1750.5,574.5,1750.5,574.5,1750.5,574.5L1750.5,574.5
									C1750.5,574.5,1750.5,574.5,1750.5,574.5C1750.5,574.5,1750.5,574.5,1750.5,574.5C1750.5,574.5,1750.5,574.5,1750.5,574.5
									C1750.5,574.5,1750.5,574.5,1750.5,574.5C1750.5,574.5,1750.5,574.5,1750.5,574.5C1750.5,574.5,1750.5,574.5,1750.5,574.5z"
									/>
								<path class="st3" d="M1750.4,574.5C1750.4,574.5,1750.4,574.5,1750.4,574.5L1750.4,574.5
									C1750.4,574.5,1750.4,574.5,1750.4,574.5C1750.4,574.5,1750.4,574.5,1750.4,574.5C1750.4,574.5,1750.4,574.5,1750.4,574.5
									L1750.4,574.5C1750.4,574.5,1750.4,574.5,1750.4,574.5C1750.4,574.5,1750.4,574.5,1750.4,574.5z"/>
								<path class="st3" d="M1750.4,574.5C1750.4,574.5,1750.4,574.5,1750.4,574.5L1750.4,574.5
									C1750.4,574.5,1750.4,574.5,1750.4,574.5C1750.4,574.5,1750.4,574.5,1750.4,574.5L1750.4,574.5
									C1750.4,574.5,1750.4,574.5,1750.4,574.5C1750.4,574.5,1750.4,574.5,1750.4,574.5z"/>
								<path class="st3" d="M1750.4,574.5L1750.4,574.5C1750.4,574.5,1750.4,574.5,1750.4,574.5
									C1750.4,574.5,1750.4,574.5,1750.4,574.5L1750.4,574.5C1750.4,574.5,1750.4,574.5,1750.4,574.5
									C1750.4,574.5,1750.4,574.5,1750.4,574.5z"/>
								<path class="st3" d="M1750.4,574.5C1750.4,574.5,1750.4,574.5,1750.4,574.5C1750.4,574.5,1750.4,574.5,1750.4,574.5
									L1750.4,574.5C1750.4,574.5,1750.4,574.5,1750.4,574.5C1750.4,574.5,1750.4,574.5,1750.4,574.5L1750.4,574.5
									C1750.4,574.5,1750.4,574.5,1750.4,574.5z"/>
								<path class="st3" d="M1750.4,574.5C1750.4,574.5,1750.4,574.5,1750.4,574.5C1750.4,574.5,1750.4,574.5,1750.4,574.5
									L1750.4,574.5C1750.4,574.5,1750.4,574.5,1750.4,574.5C1750.4,574.5,1750.4,574.5,1750.4,574.5L1750.4,574.5
									C1750.4,574.5,1750.4,574.5,1750.4,574.5z"/>
								<path class="st3" d="M1750.5,574.5C1750.5,574.5,1750.5,574.5,1750.5,574.5C1750.5,574.5,1750.5,574.5,1750.5,574.5
									C1750.5,574.5,1750.5,574.5,1750.5,574.5C1750.5,574.5,1750.5,574.5,1750.5,574.5C1750.5,574.5,1750.5,574.5,1750.5,574.5z"
									/>
								<path class="st3" d="M1750.5,574.5C1750.5,574.5,1750.5,574.5,1750.5,574.5C1750.5,574.5,1750.5,574.5,1750.5,574.5
									C1750.5,574.5,1750.5,574.5,1750.5,574.5C1750.5,574.5,1750.5,574.5,1750.5,574.5C1750.5,574.5,1750.5,574.5,1750.5,574.5z"
									/>
								<path class="st3" d="M1750.5,574.5C1750.5,574.5,1750.5,574.5,1750.5,574.5C1750.5,574.5,1750.4,574.5,1750.5,574.5
									C1750.5,574.5,1750.5,574.5,1750.5,574.5C1750.4,574.5,1750.4,574.5,1750.5,574.5C1750.4,574.5,1750.4,574.5,1750.5,574.5
									C1750.4,574.5,1750.4,574.5,1750.5,574.5C1750.4,574.5,1750.4,574.5,1750.5,574.5C1750.4,574.5,1750.4,574.5,1750.5,574.5
									C1750.4,574.5,1750.5,574.5,1750.5,574.5C1750.5,574.5,1750.5,574.5,1750.5,574.5C1750.5,574.5,1750.5,574.5,1750.5,574.5
									C1750.5,574.5,1750.5,574.5,1750.5,574.5L1750.5,574.5C1750.5,574.5,1750.5,574.5,1750.5,574.5
									C1750.5,574.5,1750.5,574.5,1750.5,574.5z M1750.5,574.5L1750.5,574.5L1750.5,574.5C1750.5,574.5,1750.5,574.5,1750.5,574.5
									L1750.5,574.5L1750.5,574.5L1750.5,574.5C1750.5,574.5,1750.5,574.5,1750.5,574.5L1750.5,574.5L1750.5,574.5L1750.5,574.5
									C1750.5,574.5,1750.5,574.5,1750.5,574.5L1750.5,574.5L1750.5,574.5L1750.5,574.5C1750.5,574.5,1750.5,574.5,1750.5,574.5
									L1750.5,574.5L1750.5,574.5L1750.5,574.5C1750.5,574.5,1750.5,574.5,1750.5,574.5L1750.5,574.5L1750.5,574.5L1750.5,574.5
									C1750.5,574.5,1750.5,574.5,1750.5,574.5L1750.5,574.5L1750.5,574.5L1750.5,574.5C1750.5,574.5,1750.5,574.5,1750.5,574.5
									L1750.5,574.5L1750.5,574.5L1750.5,574.5C1750.5,574.5,1750.5,574.5,1750.5,574.5L1750.5,574.5z M1750.5,574.5L1750.5,574.5
									L1750.5,574.5C1750.5,574.5,1750.5,574.5,1750.5,574.5L1750.5,574.5L1750.5,574.5L1750.5,574.5
									C1750.5,574.5,1750.5,574.5,1750.5,574.5L1750.5,574.5L1750.5,574.5L1750.5,574.5C1750.5,574.5,1750.5,574.5,1750.5,574.5
									L1750.5,574.5L1750.5,574.5L1750.5,574.5C1750.5,574.5,1750.5,574.5,1750.5,574.5L1750.5,574.5L1750.5,574.5L1750.5,574.5
									C1750.5,574.5,1750.5,574.5,1750.5,574.5L1750.5,574.5L1750.5,574.5L1750.5,574.5C1750.5,574.5,1750.5,574.5,1750.5,574.5
									L1750.5,574.5L1750.5,574.5L1750.5,574.5C1750.5,574.5,1750.5,574.5,1750.5,574.5L1750.5,574.5L1750.5,574.5L1750.5,574.5
									C1750.5,574.5,1750.5,574.5,1750.5,574.5L1750.5,574.5z"/>
							</g>
						</g>
					</g>
				</g>
			</g>
		</g>
		<rect x="1304" y="351" class="st8" width="894" height="447"/>
		<text transform="matrix(3.610000e-04 0 0 3.610000e-04 1750.9705 574.5108)" class="st3 st4 st5">Web App</text>
		<g>
			<defs>
				<rect id="SVGID_00000019659844227786261490000005211340938509129370_" x="1616.9" y="394.5" width="268" height="360"/>
			</defs>
			<clipPath id="SVGID_00000085933262164610865390000004292593368982473089_">
				<use xlink:href="#SVGID_00000019659844227786261490000005211340938509129370_"  style="overflow:visible;"/>
			</clipPath>
			<g style="clip-path:url(#SVGID_00000085933262164610865390000004292593368982473089_);">
				<g>
					<defs>
						<rect id="SVGID_00000179617397689802959660000001671903401541836416_" x="1570.9" y="394.5" width="360" height="360"/>
					</defs>
					<clipPath id="SVGID_00000062900858695296680630000002396528527228945343_">
						<use xlink:href="#SVGID_00000179617397689802959660000001671903401541836416_"  style="overflow:visible;"/>
					</clipPath>
					<g style="clip-path:url(#SVGID_00000062900858695296680630000002396528527228945343_);">
						<g>
							<defs>
								<rect id="SVGID_00000001662678698368880600000005413131340268404918_" x="1570.9" y="394.5" width="360" height="360"/>
							</defs>
							<clipPath id="SVGID_00000052803864553720284750000000810139906397362092_">
								<use xlink:href="#SVGID_00000001662678698368880600000005413131340268404918_"  style="overflow:visible;"/>
							</clipPath>
							<g style="clip-path:url(#SVGID_00000052803864553720284750000000810139906397362092_);">
								<path class="st3" d="M1750.9,574.5L1750.9,574.5L1750.9,574.5L1750.9,574.5L1750.9,574.5L1750.9,574.5L1750.9,574.5z"/>
								<path class="st3" d="M1750.9,574.5L1750.9,574.5L1750.9,574.5L1750.9,574.5L1750.9,574.5L1750.9,574.5L1750.9,574.5z"/>
								<path class="st3" d="M1750.9,574.5L1750.9,574.5L1750.9,574.5L1750.9,574.5L1750.9,574.5z"/>
								<path class="st3" d="M1750.8,574.5L1750.8,574.5l0.1,0.1v-0.1H1750.8z M1750.9,574.5
									C1750.9,574.5,1750.9,574.5,1750.9,574.5C1750.9,574.5,1750.9,574.5,1750.9,574.5C1750.9,574.5,1750.9,574.5,1750.9,574.5
									C1750.9,574.5,1750.9,574.5,1750.9,574.5z M1750.9,574.5C1750.9,574.5,1750.9,574.5,1750.9,574.5
									C1750.9,574.5,1750.9,574.5,1750.9,574.5C1750.9,574.5,1750.9,574.5,1750.9,574.5C1750.9,574.5,1750.9,574.5,1750.9,574.5z
									 M1750.9,574.5C1750.9,574.5,1750.9,574.5,1750.9,574.5C1750.9,574.5,1750.9,574.5,1750.9,574.5
									C1750.9,574.5,1750.9,574.5,1750.9,574.5C1750.9,574.5,1750.9,574.5,1750.9,574.5z M1750.9,574.5L1750.9,574.5L1750.9,574.5
									L1750.9,574.5L1750.9,574.5z"/>
							</g>
						</g>
					</g>
				</g>
			</g>
		</g>
		<text transform="matrix(3.610000e-04 0 0 3.610000e-04 1750.425 574.6162)" class="st4 st15">►</text>
		<text transform="matrix(3.610000e-04 0 0 3.610000e-04 1750.4525 574.6162)" class="st4 st15">Data Analysis</text>
		<text transform="matrix(3.610000e-04 0 0 3.610000e-04 1750.425 574.644)" class="st4 st15">►</text>
		<text transform="matrix(3.610000e-04 0 0 3.610000e-04 1750.4525 574.644)" class="st4 st15">Data Pre</text>
		<text transform="matrix(3.610000e-04 0 0 3.610000e-04 1750.5424 574.644)" class="st4 st15">-</text>
		<text transform="matrix(3.610000e-04 0 0 3.610000e-04 1750.5504 574.644)" class="st4 st15">processing</text>
		<text transform="matrix(3.610000e-04 0 0 3.610000e-04 1750.425 574.6718)" class="st4 st15">►</text>
		<text transform="matrix(3.610000e-04 0 0 3.610000e-04 1750.4525 574.6718)" class="st4 st15">Train Machine Learning Model</text>
		<text transform="matrix(3.610000e-04 0 0 3.610000e-04 1750.425 574.6996)" class="st4 st15">►</text>
		<text transform="matrix(3.610000e-04 0 0 3.610000e-04 1750.4572 574.6996)" class="st4 st15">Create Pipeline Model</text>
		<text transform="matrix(3.610000e-04 0 0 3.610000e-04 1750.8234 574.6162)" class="st4 st15">►</text>
		<text transform="matrix(3.610000e-04 0 0 3.610000e-04 1750.8508 574.6162)" class="st4 st15">Create Face Recognition Web App in Flask (API)</text>
		<text transform="matrix(3.610000e-04 0 0 3.610000e-04 1750.8234 574.644)" class="st4 st15">►</text>
		<text transform="matrix(3.610000e-04 0 0 3.610000e-04 1750.8508 574.644)" class="st4 st15">Deploy Flask app into production</text>
	</g>
</g>
</svg>
